<svg xmlns="http://www.w3.org/2000/svg" xmlns:xlink="http://www.w3.org/1999/xlink" width="1200" zoomAndPan="magnify" viewBox="0 0 900 299.999988" height="400" preserveAspectRatio="xMidYMid meet" version="1.2"><defs><clipPath id="6ca91d4825"><path d="M 63.335938 168 L 234 168 L 234 277.859375 L 63.335938 277.859375 Z M 63.335938 168 "/></clipPath><clipPath id="75959d3576"><path d="M 63.335938 34 L 348 34 L 348 230 L 63.335938 230 Z M 63.335938 34 "/></clipPath><clipPath id="c47566d4d9"><path d="M 11 86.449219 L 334 86.449219 L 334 223 L 11 223 Z M 11 86.449219 "/></clipPath></defs><g id="76b0bcccef"><g clip-rule="nonzero" clip-path="url(#6ca91d4825)"><path style=" stroke:none;fill-rule:nonzero;fill:#000000;fill-opacity:1;" d="M 227.996094 168.730469 L 11.136719 277.410156 L 233.523438 172.789062 Z M 227.996094 168.730469 "/></g><g clip-rule="nonzero" clip-path="url(#75959d3576)"><path style=" stroke:none;fill-rule:nonzero;fill:#000000;fill-opacity:1;" d="M 323.453125 66.289062 L 296.328125 48.089844 L 287.574219 37.089844 C 289.960938 37.5625 292.351562 38.167969 294.726562 38.902344 C 311.964844 44.207031 325.828125 55.339844 334.835938 69.464844 Z M 330.214844 141.382812 L 306.019531 151.269531 L 297.863281 141.84375 L 289.6875 132.402344 L 292.113281 123.121094 L 297.722656 101.789062 L 322.785156 93.554688 L 339.445312 112.527344 Z M 346.007812 101.433594 C 346.980469 110.914062 346.113281 120.71875 343.132812 130.382812 C 340.164062 140.042969 335.359375 148.644531 329.230469 155.929688 L 330.960938 141.789062 L 340.308594 112.59375 Z M 289.515625 172.878906 L 258.992188 174.652344 L 243.199219 156.296875 L 258.886719 132.351562 L 289.03125 132.929688 L 297.289062 142.460938 L 305.363281 151.792969 Z M 301.4375 176.320312 C 301.671875 176.1875 301.910156 176.070312 302.144531 175.953125 L 302.277344 175.964844 C 302 176.09375 301.710938 176.199219 301.4375 176.320312 Z M 289.949219 180.074219 C 277.699219 182.976562 264.542969 182.75 251.652344 178.785156 C 250.367188 178.394531 249.09375 177.960938 247.832031 177.5 L 258.859375 175.492188 L 289.710938 173.71875 L 299.675781 175.503906 C 296.421875 177.015625 293.191406 178.523438 289.949219 180.074219 Z M 225.761719 149.617188 C 226.734375 149.078125 227.707031 148.527344 228.675781 147.988281 C 227.5625 148.472656 226.457031 148.972656 225.34375 149.457031 L 220.472656 147.644531 L 211.9375 127.453125 C 217.542969 124.433594 223.125 121.363281 228.664062 118.210938 C 222.847656 120.746094 217.085938 123.359375 211.335938 126.023438 L 207.75 117.554688 L 220.957031 96.011719 L 240.714844 101.050781 L 247.308594 102.734375 L 258.203125 131.878906 L 242.5 155.8125 Z M 216.308594 154.867188 C 217.597656 154.15625 218.882812 153.460938 220.15625 152.753906 L 220.789062 159.921875 C 219.210938 158.304688 217.726562 156.613281 216.308594 154.867188 Z M 215.535156 153.882812 C 210.375 147.253906 206.386719 139.796875 203.746094 131.839844 C 206.226562 130.527344 208.707031 129.1875 211.191406 127.859375 L 219.75 148.09375 L 220.078125 151.808594 C 218.554688 152.492188 217.046875 153.1875 215.535156 153.882812 Z M 200.660156 118.59375 L 202.421875 117.765625 L 201.710938 112.144531 L 200.109375 112.945312 C 199.976562 110.464844 199.953125 107.984375 200.070312 105.476562 L 206.898438 117.710938 L 210.574219 126.390625 C 208.078125 127.53125 205.597656 128.703125 203.117188 129.882812 C 202.011719 126.195312 201.1875 122.425781 200.660156 118.59375 Z M 255.839844 37.757812 L 246.964844 49.339844 L 221.035156 69.503906 L 208.933594 73.8125 C 218.921875 55.46875 236.1875 42.589844 255.839844 37.757812 Z M 229.03125 77.027344 C 226.5 78.222656 223.976562 79.441406 221.457031 80.664062 L 221.652344 70.09375 L 247.347656 50.101562 L 271.882812 56.953125 L 271.777344 84.300781 L 247.542969 101.933594 L 225.09375 96.195312 L 221.195312 95.210938 L 221.402344 83.605469 C 224.292969 82.109375 227.195312 80.609375 230.070312 79.089844 C 240.257812 73.730469 250.40625 68.285156 260.421875 62.574219 C 249.855469 67.195312 239.417969 72.066406 229.03125 77.027344 Z M 272.722656 56.941406 L 295.988281 48.867188 L 322.847656 66.90625 L 322.507812 92.769531 L 297.433594 100.988281 L 277.109375 87.308594 L 272.617188 84.300781 Z M 294.976562 38.101562 C 292.246094 37.261719 289.515625 36.589844 286.769531 36.066406 L 286.691406 35.972656 L 286.601562 36.039062 C 256.574219 30.484375 226.40625 44.167969 210.507812 69.464844 L 210.546875 69.359375 L 135.042969 107.210938 L 206.648438 76.410156 C 204.992188 79.796875 203.589844 83.355469 202.433594 87.058594 C 202.09375 88.199219 201.777344 89.34375 201.488281 90.484375 L 198.007812 92.21875 L 182.609375 100.027344 C 177.488281 102.667969 172.367188 105.28125 167.273438 107.984375 C 157.085938 113.339844 146.9375 118.777344 136.910156 124.488281 C 147.476562 119.878906 157.914062 114.996094 168.3125 110.03125 C 173.511719 107.578125 178.671875 105.015625 183.855469 102.511719 L 199.335938 94.855469 L 200.632812 94.199219 C 199.335938 100.605469 198.914062 107.039062 199.308594 113.355469 L 20.628906 202.902344 L 199.875 118.960938 C 200.410156 122.792969 201.238281 126.5625 202.355469 130.238281 C 200.660156 131.039062 198.96875 131.851562 197.273438 132.652344 C 192.0625 135.109375 186.902344 137.667969 181.714844 140.175781 L 166.25 147.84375 L 150.839844 155.65625 C 145.730469 158.304688 140.597656 160.90625 135.515625 163.609375 C 125.316406 168.96875 115.167969 174.414062 105.152344 180.113281 C 115.71875 175.503906 126.15625 170.632812 136.539062 165.660156 C 141.753906 163.203125 146.914062 160.65625 152.085938 158.148438 L 167.5625 150.480469 L 182.976562 142.671875 C 188.082031 140.019531 193.21875 137.417969 198.296875 134.714844 C 199.859375 133.898438 201.421875 133.058594 202.984375 132.234375 C 204.480469 136.695312 206.398438 141.003906 208.695312 145.097656 L 206.253906 142.816406 L 71.828125 210.191406 L 209.222656 146.003906 C 210.875 148.867188 212.726562 151.609375 214.761719 154.238281 C 208.90625 156.914062 203.078125 159.660156 197.273438 162.429688 C 192.074219 164.882812 186.914062 167.445312 181.730469 169.953125 L 166.25 177.617188 L 150.851562 185.429688 C 145.742188 188.082031 140.609375 190.679688 135.53125 193.386719 C 125.328125 198.742188 115.179688 204.175781 105.164062 209.886719 C 115.730469 205.28125 126.15625 200.398438 136.554688 195.433594 C 141.753906 192.980469 146.925781 190.433594 152.097656 187.925781 L 167.578125 180.257812 L 182.976562 172.445312 C 188.097656 169.792969 193.230469 167.195312 198.3125 164.488281 C 204.085938 161.457031 209.835938 158.386719 215.574219 155.261719 C 217.242188 157.335938 219.015625 159.34375 220.90625 161.234375 L 220.917969 161.351562 L 221.011719 161.339844 C 227.980469 168.285156 236.410156 173.929688 246.035156 177.710938 L 246.046875 177.828125 L 246.230469 177.789062 C 247.925781 178.445312 249.644531 179.050781 251.402344 179.601562 C 263.230469 183.238281 275.285156 183.75 286.679688 181.621094 C 286.363281 181.765625 286.050781 181.910156 285.746094 182.070312 C 280.535156 184.523438 275.375 187.085938 270.191406 189.578125 L 254.722656 197.246094 L 239.324219 205.058594 C 234.203125 207.710938 229.070312 210.320312 223.992188 213.011719 C 213.789062 218.371094 203.640625 223.816406 193.625 229.527344 C 204.191406 224.90625 214.628906 220.035156 225.015625 215.074219 C 230.226562 212.621094 235.386719 210.058594 240.570312 207.550781 L 256.039062 199.898438 L 271.449219 192.085938 C 276.558594 189.433594 281.691406 186.835938 286.769531 184.128906 C 289.84375 182.515625 292.914062 180.886719 295.976562 179.246094 C 318.136719 172.039062 336.582031 154.539062 343.945312 130.632812 C 355.960938 91.613281 333.980469 50.113281 294.976562 38.101562 "/></g><g clip-rule="nonzero" clip-path="url(#c47566d4d9)"><path style=" stroke:none;fill-rule:nonzero;fill:#000000;fill-opacity:1;" d="M 303.003906 86.804688 C 302.953125 86.617188 303.167969 86.464844 303.328125 86.578125 C 314.320312 94.402344 321.792969 108.667969 321.203125 122.226562 C 320.570312 136.679688 310.128906 149.472656 299.734375 158.550781 C 294.324219 163.277344 288.449219 167.441406 282.40625 171.320312 C 282.207031 171.449219 281.980469 171.195312 282.128906 171.011719 C 289.058594 162.289062 296.136719 153.605469 301.09375 143.558594 C 303.78125 138.105469 305.835938 132.265625 306.480469 126.195312 C 307.195312 119.457031 306.882812 112.410156 306.3125 105.667969 C 305.777344 99.292969 304.683594 92.980469 303.003906 86.804688 Z M 330.675781 129.613281 C 330.753906 129.441406 331.007812 129.449219 331.070312 129.628906 C 334.609375 139.832031 334.570312 150.890625 329.722656 160.671875 C 326.550781 167.082031 321.625 172.832031 315.785156 176.96875 C 300.363281 187.90625 280.699219 192.113281 262.152344 193.402344 C 248.070312 194.382812 233.890625 193.605469 219.917969 191.65625 C 219.667969 191.625 219.6875 191.25 219.9375 191.242188 C 238.648438 190.515625 258.207031 189.480469 275.933594 183.089844 C 281.871094 180.953125 287.492188 178.085938 292.796875 174.679688 C 300.308594 169.859375 307.671875 164.488281 313.738281 157.910156 C 321.292969 149.726562 326.28125 139.75 330.675781 129.613281 Z M 314.15625 186.925781 C 314.171875 187.285156 312.957031 188.476562 312.726562 188.765625 C 311.90625 189.773438 311.058594 190.761719 310.183594 191.71875 C 308.242188 193.851562 306.164062 195.851562 303.984375 197.738281 C 284.664062 214.421875 258.527344 220.945312 233.542969 222.15625 C 210.609375 223.265625 187.851562 219.957031 165.53125 214.945312 C 142.167969 209.695312 118.984375 203.441406 95.386719 199.273438 C 70.015625 194.792969 43.042969 192.753906 19.023438 203.886719 C 17.546875 204.570312 16.085938 205.296875 14.644531 206.058594 C 14.21875 206.28125 11.191406 208.308594 11.113281 207.3125 C 11.054688 206.574219 12.746094 205.226562 13.179688 204.757812 C 14.199219 203.65625 15.257812 202.589844 16.355469 201.566406 C 20.472656 197.71875 25.097656 194.417969 30.015625 191.675781 C 41.027344 185.539062 53.429688 182.304688 65.886719 180.839844 C 101.066406 176.699219 136.71875 184.875 170.964844 192.363281 C 217.53125 202.539062 270.160156 211.667969 313.59375 186.296875 C 314.277344 185.898438 314.148438 186.699219 314.15625 186.925781 Z M 314.15625 186.925781 "/></g><g style="fill:#000000;fill-opacity:1;"><g transform="translate(373.225229, 130.700546)"><path style="stroke:none" d="M 14.328125 -45.3125 L 14.328125 -24.4375 L 23.5625 -24.4375 L 23.5625 -45.3125 C 23.5625 -46.664062 23.15625 -47.867188 22.34375 -48.921875 C 21.539062 -49.984375 20.414062 -50.515625 18.96875 -50.515625 C 17.488281 -50.515625 16.34375 -49.984375 15.53125 -48.921875 C 14.726562 -47.867188 14.328125 -46.664062 14.328125 -45.3125 Z M 35.15625 -45.953125 L 35.15625 -1.734375 C 35.15625 -1.296875 35.046875 -0.894531 34.828125 -0.53125 C 34.609375 -0.175781 34.253906 0 33.765625 0 L 24.953125 0 C 24.515625 0 24.171875 -0.171875 23.921875 -0.515625 C 23.679688 -0.867188 23.5625 -1.273438 23.5625 -1.734375 L 23.5625 -14.328125 L 14.328125 -14.328125 L 14.328125 -1.6875 C 14.328125 -1.226562 14.238281 -0.832031 14.0625 -0.5 C 13.882812 -0.164062 13.535156 0 13.015625 0 L 3.859375 0 C 3.546875 0 3.28125 -0.164062 3.0625 -0.5 C 2.84375 -0.832031 2.734375 -1.226562 2.734375 -1.6875 L 2.734375 -45.953125 C 2.734375 -48.035156 3.164062 -49.988281 4.03125 -51.8125 C 4.90625 -53.632812 6.085938 -55.234375 7.578125 -56.609375 C 9.066406 -57.984375 10.785156 -59.0625 12.734375 -59.84375 C 14.691406 -60.625 16.753906 -61.015625 18.921875 -61.015625 C 21.085938 -61.015625 23.144531 -60.625 25.09375 -59.84375 C 27.050781 -59.0625 28.78125 -57.984375 30.28125 -56.609375 C 31.789062 -55.234375 32.976562 -53.632812 33.84375 -51.8125 C 34.71875 -49.988281 35.15625 -48.035156 35.15625 -45.953125 Z M 35.15625 -45.953125 "/></g></g><g style="fill:#000000;fill-opacity:1;"><g transform="translate(417.67781, 130.700546)"><path style="stroke:none" d="M 21.828125 -42.65625 L 21.828125 -45.09375 C 21.828125 -46.59375 21.4375 -47.878906 20.65625 -48.953125 C 19.875 -50.023438 18.703125 -50.5625 17.140625 -50.5625 C 16.421875 -50.5625 15.695312 -50.378906 14.96875 -50.015625 C 14.25 -49.648438 13.648438 -49.066406 13.171875 -48.265625 C 12.691406 -47.472656 12.453125 -46.414062 12.453125 -45.09375 C 12.453125 -43.726562 12.71875 -42.5625 13.25 -41.59375 C 13.789062 -40.625 14.546875 -39.71875 15.515625 -38.875 C 16.484375 -38.039062 17.601562 -37.117188 18.875 -36.109375 C 20.90625 -34.546875 22.800781 -33.023438 24.5625 -31.546875 C 26.320312 -30.066406 27.867188 -28.503906 29.203125 -26.859375 C 30.535156 -25.210938 31.578125 -23.359375 32.328125 -21.296875 C 33.078125 -19.242188 33.453125 -16.847656 33.453125 -14.109375 C 33.453125 -12.078125 33.066406 -10.15625 32.296875 -8.34375 C 31.535156 -6.539062 30.453125 -4.9375 29.046875 -3.53125 C 27.648438 -2.132812 25.96875 -1.035156 24 -0.234375 C 22.03125 0.554688 19.84375 0.953125 17.4375 0.953125 C 14.84375 0.953125 12.5625 0.523438 10.59375 -0.328125 C 8.625 -1.179688 6.976562 -2.328125 5.65625 -3.765625 C 4.34375 -5.210938 3.359375 -6.878906 2.703125 -8.765625 C 2.054688 -10.648438 1.734375 -12.601562 1.734375 -14.625 L 1.734375 -16.921875 C 1.734375 -17.671875 1.828125 -18.203125 2.015625 -18.515625 C 2.203125 -18.835938 2.601562 -19 3.21875 -19 L 11.109375 -19 C 11.710938 -19 12.109375 -18.867188 12.296875 -18.609375 C 12.484375 -18.347656 12.578125 -17.890625 12.578125 -17.234375 L 12.578125 -15.28125 C 12.578125 -13.832031 12.835938 -12.6875 13.359375 -11.84375 C 13.878906 -11.007812 14.523438 -10.414062 15.296875 -10.0625 C 16.066406 -9.71875 16.8125 -9.546875 17.53125 -9.546875 C 18.894531 -9.546875 20.0625 -10.007812 21.03125 -10.9375 C 22 -11.863281 22.484375 -13.125 22.484375 -14.71875 C 22.484375 -16.132812 22.222656 -17.351562 21.703125 -18.375 C 21.179688 -19.40625 20.363281 -20.441406 19.25 -21.484375 C 18.132812 -22.523438 16.679688 -23.769531 14.890625 -25.21875 C 12.628906 -27.0625 10.664062 -28.691406 9 -30.109375 C 7.34375 -31.535156 5.976562 -32.945312 4.90625 -34.34375 C 3.832031 -35.75 3.035156 -37.316406 2.515625 -39.046875 C 1.992188 -40.785156 1.734375 -42.898438 1.734375 -45.390625 C 1.734375 -47.648438 2.066406 -49.640625 2.734375 -51.359375 C 3.398438 -53.078125 4.289062 -54.546875 5.40625 -55.765625 C 6.519531 -56.984375 7.753906 -57.972656 9.109375 -58.734375 C 10.472656 -59.503906 11.847656 -60.066406 13.234375 -60.421875 C 14.617188 -60.785156 15.921875 -60.96875 17.140625 -60.96875 C 20.148438 -60.96875 22.8125 -60.316406 25.125 -59.015625 C 27.4375 -57.710938 29.25 -55.875 30.5625 -53.5 C 31.882812 -51.132812 32.546875 -48.34375 32.546875 -45.125 L 32.546875 -42.65625 C 32.546875 -42.050781 32.4375 -41.625 32.21875 -41.375 C 32 -41.132812 31.546875 -41.015625 30.859375 -41.015625 L 23.09375 -41.015625 C 22.539062 -41.015625 22.191406 -41.132812 22.046875 -41.375 C 21.898438 -41.625 21.828125 -42.050781 21.828125 -42.65625 Z M 21.828125 -42.65625 "/></g></g><g style="fill:#000000;fill-opacity:1;"><g transform="translate(458.963285, 130.700546)"><path style="stroke:none" d="M 28.203125 -30.15625 C 30.691406 -28.25 32.628906 -25.832031 34.015625 -22.90625 C 35.410156 -19.988281 36.109375 -16.609375 36.109375 -12.765625 L 36.109375 -1.828125 C 36.109375 -1.453125 35.988281 -1.050781 35.75 -0.625 C 35.519531 -0.207031 35.117188 0 34.546875 0 L 26.46875 0 C 25.976562 0 25.53125 -0.164062 25.125 -0.5 C 24.71875 -0.832031 24.515625 -1.316406 24.515625 -1.953125 L 24.515625 -11.40625 C 24.515625 -13.925781 24.222656 -16.140625 23.640625 -18.046875 C 23.066406 -19.960938 22.0625 -21.476562 20.625 -22.59375 C 19.195312 -23.707031 17.210938 -24.320312 14.671875 -24.4375 L 14.671875 -1.65625 C 14.671875 -0.550781 14.207031 0 13.28125 0 L 4.59375 0 C 3.613281 0 3.125 -0.550781 3.125 -1.65625 L 3.125 -58.375 C 3.125 -59.5 3.613281 -60.0625 4.59375 -60.0625 L 13.234375 -60.0625 C 14.191406 -60.0625 14.671875 -59.5 14.671875 -58.375 L 14.671875 -35.328125 C 17.066406 -35.523438 18.929688 -36.1875 20.265625 -37.3125 C 21.597656 -38.445312 22.535156 -39.960938 23.078125 -41.859375 C 23.628906 -43.753906 23.90625 -45.914062 23.90625 -48.34375 L 23.90625 -58.0625 C 23.90625 -58.726562 24.113281 -59.226562 24.53125 -59.5625 C 24.957031 -59.894531 25.414062 -60.0625 25.90625 -60.0625 L 33.9375 -60.0625 C 34.507812 -60.0625 34.910156 -59.847656 35.140625 -59.421875 C 35.378906 -59.003906 35.5 -58.59375 35.5 -58.1875 L 35.5 -47.046875 C 35.5 -43.367188 34.859375 -40.113281 33.578125 -37.28125 C 32.304688 -34.445312 30.515625 -32.070312 28.203125 -30.15625 Z M 28.203125 -30.15625 "/></g></g><g style="fill:#000000;fill-opacity:1;"><g transform="translate(503.632776, 130.700546)"><path style="stroke:none" d="M 14.671875 -58.375 L 14.671875 -1.65625 C 14.671875 -0.550781 14.191406 0 13.234375 0 L 4.5625 0 C 3.601562 0 3.125 -0.550781 3.125 -1.65625 L 3.125 -58.375 C 3.125 -59.5 3.601562 -60.0625 4.5625 -60.0625 L 13.234375 -60.0625 C 14.191406 -60.0625 14.671875 -59.5 14.671875 -58.375 Z M 14.671875 -58.375 "/></g></g><g style="fill:#000000;fill-opacity:1;"><g transform="translate(528.041566, 130.700546)"><path style="stroke:none" d="M 14.671875 -49.515625 L 14.671875 -10.453125 L 19.1875 -10.453125 C 20.625 -10.515625 21.773438 -11.046875 22.640625 -12.046875 C 23.515625 -13.046875 23.953125 -14.28125 23.953125 -15.75 L 23.953125 -44.171875 C 23.953125 -45.992188 23.488281 -47.335938 22.5625 -48.203125 C 21.632812 -49.078125 20.4375 -49.515625 18.96875 -49.515625 Z M 3.125 -1.65625 L 3.125 -58.375 C 3.125 -59.5 3.613281 -60.0625 4.59375 -60.0625 L 19.65625 -60.0625 C 22.664062 -60.03125 25.363281 -59.421875 27.75 -58.234375 C 30.132812 -57.046875 32.019531 -55.316406 33.40625 -53.046875 C 34.800781 -50.773438 35.5 -47.976562 35.5 -44.65625 L 35.5 -15.40625 C 35.5 -12.082031 34.800781 -9.285156 33.40625 -7.015625 C 32.019531 -4.742188 30.132812 -3.015625 27.75 -1.828125 C 25.363281 -0.640625 22.695312 -0.03125 19.75 0 L 4.59375 0 C 3.613281 0 3.125 -0.550781 3.125 -1.65625 Z M 3.125 -1.65625 "/></g></g><g style="fill:#000000;fill-opacity:1;"><g transform="translate(572.277209, 130.700546)"><path style="stroke:none" d="M 14.328125 -45.3125 L 14.328125 -24.4375 L 23.5625 -24.4375 L 23.5625 -45.3125 C 23.5625 -46.664062 23.15625 -47.867188 22.34375 -48.921875 C 21.539062 -49.984375 20.414062 -50.515625 18.96875 -50.515625 C 17.488281 -50.515625 16.34375 -49.984375 15.53125 -48.921875 C 14.726562 -47.867188 14.328125 -46.664062 14.328125 -45.3125 Z M 35.15625 -45.953125 L 35.15625 -1.734375 C 35.15625 -1.296875 35.046875 -0.894531 34.828125 -0.53125 C 34.609375 -0.175781 34.253906 0 33.765625 0 L 24.953125 0 C 24.515625 0 24.171875 -0.171875 23.921875 -0.515625 C 23.679688 -0.867188 23.5625 -1.273438 23.5625 -1.734375 L 23.5625 -14.328125 L 14.328125 -14.328125 L 14.328125 -1.6875 C 14.328125 -1.226562 14.238281 -0.832031 14.0625 -0.5 C 13.882812 -0.164062 13.535156 0 13.015625 0 L 3.859375 0 C 3.546875 0 3.28125 -0.164062 3.0625 -0.5 C 2.84375 -0.832031 2.734375 -1.226562 2.734375 -1.6875 L 2.734375 -45.953125 C 2.734375 -48.035156 3.164062 -49.988281 4.03125 -51.8125 C 4.90625 -53.632812 6.085938 -55.234375 7.578125 -56.609375 C 9.066406 -57.984375 10.785156 -59.0625 12.734375 -59.84375 C 14.691406 -60.625 16.753906 -61.015625 18.921875 -61.015625 C 21.085938 -61.015625 23.144531 -60.625 25.09375 -59.84375 C 27.050781 -59.0625 28.78125 -57.984375 30.28125 -56.609375 C 31.789062 -55.234375 32.976562 -53.632812 33.84375 -51.8125 C 34.71875 -49.988281 35.15625 -48.035156 35.15625 -45.953125 Z M 35.15625 -45.953125 "/></g></g><g style="fill:#000000;fill-opacity:1;"><g transform="translate(616.72979, 130.700546)"><path style="stroke:none" d=""/></g></g><g style="fill:#000000;fill-opacity:1;"><g transform="translate(643.437963, 130.700546)"><path style="stroke:none" d="M 30.640625 -58.5 L 30.640625 -51.125 C 30.640625 -50.050781 30.25 -49.515625 29.46875 -49.515625 L 14.671875 -49.515625 L 14.671875 -34.71875 L 26.078125 -34.71875 C 26.429688 -34.71875 26.738281 -34.609375 27 -34.390625 C 27.257812 -34.171875 27.390625 -33.773438 27.390625 -33.203125 L 27.390625 -25.828125 C 27.390625 -24.804688 26.953125 -24.296875 26.078125 -24.296875 L 14.671875 -24.296875 L 14.671875 -1.65625 C 14.671875 -0.550781 14.207031 0 13.28125 0 L 4.59375 0 C 3.613281 0 3.125 -0.550781 3.125 -1.65625 L 3.125 -58.375 C 3.125 -59.5 3.613281 -60.0625 4.59375 -60.0625 L 29.46875 -60.0625 C 30.25 -60.0625 30.640625 -59.539062 30.640625 -58.5 Z M 30.640625 -58.5 "/></g></g><g style="fill:#000000;fill-opacity:1;"><g transform="translate(681.252652, 130.700546)"><path style="stroke:none" d="M 34.59375 -45.90625 L 34.59375 -14.109375 C 34.59375 -11.765625 34.15625 -9.65625 33.28125 -7.78125 C 32.414062 -5.914062 31.226562 -4.332031 29.71875 -3.03125 C 28.21875 -1.726562 26.484375 -0.738281 24.515625 -0.0625 C 22.546875 0.613281 20.476562 0.953125 18.3125 0.953125 C 16.144531 0.953125 14.09375 0.597656 12.15625 -0.109375 C 10.21875 -0.816406 8.492188 -1.820312 6.984375 -3.125 C 5.484375 -4.425781 4.304688 -6.007812 3.453125 -7.875 C 2.597656 -9.738281 2.171875 -11.816406 2.171875 -14.109375 L 2.171875 -45.90625 C 2.171875 -48.25 2.597656 -50.351562 3.453125 -52.21875 C 4.304688 -54.09375 5.484375 -55.679688 6.984375 -56.984375 C 8.492188 -58.285156 10.21875 -59.273438 12.15625 -59.953125 C 14.09375 -60.628906 16.144531 -60.96875 18.3125 -60.96875 C 20.476562 -60.96875 22.546875 -60.628906 24.515625 -59.953125 C 26.484375 -59.273438 28.21875 -58.285156 29.71875 -56.984375 C 31.226562 -55.679688 32.414062 -54.101562 33.28125 -52.25 C 34.15625 -50.394531 34.59375 -48.28125 34.59375 -45.90625 Z M 18.40625 -50.5625 C 16.925781 -50.5625 15.773438 -50.023438 14.953125 -48.953125 C 14.128906 -47.878906 13.71875 -46.648438 13.71875 -45.265625 L 13.71875 -14.71875 C 13.71875 -13.351562 14.113281 -12.140625 14.90625 -11.078125 C 15.695312 -10.023438 16.832031 -9.5 18.3125 -9.5 C 19.8125 -9.5 20.972656 -9.984375 21.796875 -10.953125 C 22.628906 -11.921875 23.046875 -13.085938 23.046875 -14.453125 L 23.046875 -45.265625 C 23.046875 -46.648438 22.628906 -47.878906 21.796875 -48.953125 C 20.972656 -50.023438 19.84375 -50.5625 18.40625 -50.5625 Z M 18.40625 -50.5625 "/></g></g><g style="fill:#000000;fill-opacity:1;"><g transform="translate(724.577226, 130.700546)"><path style="stroke:none" d="M 24 -37.1875 L 24 -44.390625 C 24 -45.953125 23.539062 -47.195312 22.625 -48.125 C 21.71875 -49.050781 20.507812 -49.515625 19 -49.515625 L 14.671875 -49.515625 L 14.671875 -32.28125 L 18.703125 -32.28125 C 20.441406 -32.28125 21.757812 -32.726562 22.65625 -33.625 C 23.550781 -34.53125 24 -35.71875 24 -37.1875 Z M 33.625 -0.046875 L 25.640625 -0.046875 C 25.148438 -0.046875 24.695312 -0.210938 24.28125 -0.546875 C 23.863281 -0.878906 23.65625 -1.363281 23.65625 -2 L 23.65625 -11.0625 C 23.65625 -15.257812 22.898438 -18.304688 21.390625 -20.203125 C 19.890625 -22.097656 17.648438 -23.144531 14.671875 -23.34375 L 14.671875 -1.609375 C 14.671875 -0.535156 14.191406 0 13.234375 0 L 4.5625 0 C 3.601562 0 3.125 -0.535156 3.125 -1.609375 L 3.125 -58.375 C 3.125 -59.5 3.613281 -60.0625 4.59375 -60.0625 L 19.921875 -60.0625 C 22.148438 -60.0625 24.21875 -59.65625 26.125 -58.84375 C 28.03125 -58.03125 29.691406 -56.898438 31.109375 -55.453125 C 32.523438 -54.015625 33.625 -52.351562 34.40625 -50.46875 C 35.1875 -48.59375 35.578125 -46.566406 35.578125 -44.390625 L 35.578125 -38.1875 C 35.578125 -35.613281 34.984375 -33.421875 33.796875 -31.609375 C 32.617188 -29.804688 31.144531 -28.3125 29.375 -27.125 C 31.34375 -25.476562 32.800781 -23.242188 33.75 -20.421875 C 34.707031 -17.597656 35.1875 -14.015625 35.1875 -9.671875 L 35.1875 -1.859375 C 35.1875 -1.484375 35.070312 -1.085938 34.84375 -0.671875 C 34.613281 -0.253906 34.207031 -0.046875 33.625 -0.046875 Z M 33.625 -0.046875 "/></g></g><g style="fill:#000000;fill-opacity:1;"><g transform="translate(769.073178, 130.700546)"><path style="stroke:none" d="M 44.4375 -1.734375 L 44.4375 -45.3125 C 44.4375 -46.664062 44.023438 -47.867188 43.203125 -48.921875 C 42.378906 -49.984375 41.242188 -50.515625 39.796875 -50.515625 C 38.378906 -50.515625 37.265625 -50.003906 36.453125 -48.984375 C 35.640625 -47.972656 35.207031 -46.804688 35.15625 -45.484375 L 35.15625 -1.65625 C 35.15625 -1.1875 35.070312 -0.789062 34.90625 -0.46875 C 34.75 -0.15625 34.410156 0 33.890625 0 L 24.734375 0 C 24.441406 0 24.171875 -0.164062 23.921875 -0.5 C 23.679688 -0.832031 23.5625 -1.226562 23.5625 -1.6875 L 23.5625 -45.3125 C 23.5625 -46.664062 23.15625 -47.867188 22.34375 -48.921875 C 21.539062 -49.984375 20.414062 -50.515625 18.96875 -50.515625 C 17.488281 -50.515625 16.34375 -49.984375 15.53125 -48.921875 C 14.726562 -47.867188 14.328125 -46.664062 14.328125 -45.3125 L 14.328125 -1.6875 C 14.328125 -1.226562 14.238281 -0.832031 14.0625 -0.5 C 13.882812 -0.164062 13.535156 0 13.015625 0 L 3.859375 0 C 3.566406 0 3.304688 -0.164062 3.078125 -0.5 C 2.847656 -0.832031 2.734375 -1.226562 2.734375 -1.6875 L 2.734375 -45.953125 C 2.734375 -48.035156 3.164062 -49.988281 4.03125 -51.8125 C 4.90625 -53.632812 6.085938 -55.234375 7.578125 -56.609375 C 9.066406 -57.984375 10.785156 -59.0625 12.734375 -59.84375 C 14.691406 -60.625 16.753906 -61.015625 18.921875 -61.015625 C 20.859375 -61.015625 22.722656 -60.695312 24.515625 -60.0625 C 26.304688 -59.425781 27.910156 -58.539062 29.328125 -57.40625 C 30.753906 -58.539062 32.363281 -59.425781 34.15625 -60.0625 C 35.945312 -60.695312 37.8125 -61.015625 39.75 -61.015625 C 41.914062 -61.015625 43.972656 -60.625 45.921875 -59.84375 C 47.878906 -59.0625 49.609375 -57.984375 51.109375 -56.609375 C 52.617188 -55.234375 53.804688 -53.632812 54.671875 -51.8125 C 55.546875 -49.988281 55.984375 -48.035156 55.984375 -45.953125 L 55.984375 -1.734375 C 55.984375 -1.296875 55.878906 -0.894531 55.671875 -0.53125 C 55.472656 -0.175781 55.128906 0 54.640625 0 L 45.828125 0 C 45.359375 0 45.007812 -0.171875 44.78125 -0.515625 C 44.550781 -0.867188 44.4375 -1.273438 44.4375 -1.734375 Z M 44.4375 -1.734375 "/></g></g><g style="fill:#000000;fill-opacity:1;"><g transform="translate(834.350476, 130.700546)"><path style="stroke:none" d="M 14.328125 -45.3125 L 14.328125 -24.4375 L 23.5625 -24.4375 L 23.5625 -45.3125 C 23.5625 -46.664062 23.15625 -47.867188 22.34375 -48.921875 C 21.539062 -49.984375 20.414062 -50.515625 18.96875 -50.515625 C 17.488281 -50.515625 16.34375 -49.984375 15.53125 -48.921875 C 14.726562 -47.867188 14.328125 -46.664062 14.328125 -45.3125 Z M 35.15625 -45.953125 L 35.15625 -1.734375 C 35.15625 -1.296875 35.046875 -0.894531 34.828125 -0.53125 C 34.609375 -0.175781 34.253906 0 33.765625 0 L 24.953125 0 C 24.515625 0 24.171875 -0.171875 23.921875 -0.515625 C 23.679688 -0.867188 23.5625 -1.273438 23.5625 -1.734375 L 23.5625 -14.328125 L 14.328125 -14.328125 L 14.328125 -1.6875 C 14.328125 -1.226562 14.238281 -0.832031 14.0625 -0.5 C 13.882812 -0.164062 13.535156 0 13.015625 0 L 3.859375 0 C 3.546875 0 3.28125 -0.164062 3.0625 -0.5 C 2.84375 -0.832031 2.734375 -1.226562 2.734375 -1.6875 L 2.734375 -45.953125 C 2.734375 -48.035156 3.164062 -49.988281 4.03125 -51.8125 C 4.90625 -53.632812 6.085938 -55.234375 7.578125 -56.609375 C 9.066406 -57.984375 10.785156 -59.0625 12.734375 -59.84375 C 14.691406 -60.625 16.753906 -61.015625 18.921875 -61.015625 C 21.085938 -61.015625 23.144531 -60.625 25.09375 -59.84375 C 27.050781 -59.0625 28.78125 -57.984375 30.28125 -56.609375 C 31.789062 -55.234375 32.976562 -53.632812 33.84375 -51.8125 C 34.71875 -49.988281 35.15625 -48.035156 35.15625 -45.953125 Z M 35.15625 -45.953125 "/></g></g><g style="fill:#10b981;fill-opacity:1;"><g transform="translate(392.680434, 179.608319)"><path style="stroke:none" d="M 11.046875 -14.4375 C 10.378906 -13.976562 9.890625 -13.414062 9.578125 -12.75 C 9.273438 -12.09375 9.125 -11.285156 9.125 -10.328125 L 9.125 -9.75 L 6.296875 -9.75 C 6.359375 -11.1875 6.679688 -12.394531 7.265625 -13.375 C 7.859375 -14.363281 8.753906 -15.191406 9.953125 -15.859375 Z M 6.203125 -14.4375 C 5.535156 -13.976562 5.046875 -13.414062 4.734375 -12.75 C 4.429688 -12.09375 4.28125 -11.285156 4.28125 -10.328125 L 4.28125 -9.75 L 1.46875 -9.75 C 1.53125 -11.1875 1.851562 -12.394531 2.4375 -13.375 C 3.019531 -14.363281 3.910156 -15.191406 5.109375 -15.859375 Z M 6.203125 -14.4375 "/></g></g><g style="fill:#10b981;fill-opacity:1;"><g transform="translate(404.966373, 179.608319)"><path style="stroke:none" d="M 1 0 L 1 -1.265625 L 3 -1.265625 L 3 -14.3125 L 1 -14.3125 L 1 -15.578125 L 10.234375 -15.578125 C 12.140625 -15.578125 13.566406 -15.253906 14.515625 -14.609375 C 15.472656 -13.972656 15.953125 -13.015625 15.953125 -11.734375 C 15.953125 -10.804688 15.617188 -10.070312 14.953125 -9.53125 C 14.296875 -8.988281 13.320312 -8.644531 12.03125 -8.5 C 13.59375 -8.351562 14.789062 -7.9375 15.625 -7.25 C 16.46875 -6.5625 16.890625 -5.648438 16.890625 -4.515625 C 16.890625 -2.960938 16.304688 -1.820312 15.140625 -1.09375 C 13.972656 -0.363281 12.148438 0 9.671875 0 Z M 7.015625 -9.078125 L 8.375 -9.078125 C 9.570312 -9.078125 10.457031 -9.296875 11.03125 -9.734375 C 11.613281 -10.171875 11.90625 -10.835938 11.90625 -11.734375 C 11.90625 -12.640625 11.625 -13.296875 11.0625 -13.703125 C 10.507812 -14.109375 9.613281 -14.3125 8.375 -14.3125 L 7.015625 -14.3125 Z M 7.015625 -1.265625 L 8.5 -1.265625 C 9.832031 -1.265625 10.816406 -1.523438 11.453125 -2.046875 C 12.097656 -2.578125 12.421875 -3.398438 12.421875 -4.515625 C 12.421875 -5.617188 12.097656 -6.445312 11.453125 -7 C 10.804688 -7.550781 9.820312 -7.828125 8.5 -7.828125 L 7.015625 -7.828125 Z M 7.015625 -1.265625 "/></g></g><g style="fill:#10b981;fill-opacity:1;"><g transform="translate(423.01982, 179.608319)"><path style="stroke:none" d="M 1.96875 -14.234375 C 1.96875 -14.796875 2.160156 -15.269531 2.546875 -15.65625 C 2.929688 -16.039062 3.40625 -16.234375 3.96875 -16.234375 C 4.519531 -16.234375 4.988281 -16.039062 5.375 -15.65625 C 5.757812 -15.269531 5.953125 -14.796875 5.953125 -14.234375 C 5.953125 -13.679688 5.757812 -13.210938 5.375 -12.828125 C 4.988281 -12.441406 4.519531 -12.25 3.96875 -12.25 C 3.40625 -12.25 2.929688 -12.441406 2.546875 -12.828125 C 2.160156 -13.210938 1.96875 -13.679688 1.96875 -14.234375 Z M 6 -1.265625 L 7.59375 -1.265625 L 7.59375 0 L 0.734375 0 L 0.734375 -1.265625 L 2.3125 -1.265625 L 2.3125 -9.828125 L 0.734375 -9.828125 L 0.734375 -11.09375 L 6 -11.09375 Z M 6 -1.265625 "/></g></g><g style="fill:#10b981;fill-opacity:1;"><g transform="translate(431.133963, 179.608319)"><path style="stroke:none" d="M 11.484375 -11.21875 L 11.484375 -7.90625 L 10.296875 -7.90625 C 10.253906 -8.5 10.09375 -8.941406 9.8125 -9.234375 C 9.539062 -9.523438 9.140625 -9.671875 8.609375 -9.671875 C 7.804688 -9.671875 7.171875 -9.3125 6.703125 -8.59375 C 6.234375 -7.882812 6 -6.898438 6 -5.640625 L 6 -1.265625 L 8.015625 -1.265625 L 8.015625 0 L 0.734375 0 L 0.734375 -1.265625 L 2.3125 -1.265625 L 2.3125 -9.828125 L 0.609375 -9.828125 L 0.609375 -11.09375 L 6 -11.09375 L 6 -9.125 C 6.363281 -9.894531 6.84375 -10.460938 7.4375 -10.828125 C 8.03125 -11.203125 8.757812 -11.390625 9.625 -11.390625 C 9.84375 -11.390625 10.101562 -11.375 10.40625 -11.34375 C 10.71875 -11.3125 11.078125 -11.269531 11.484375 -11.21875 Z M 11.484375 -11.21875 "/></g></g><g style="fill:#10b981;fill-opacity:1;"><g transform="translate(442.387382, 179.608319)"><path style="stroke:none" d=""/></g></g><g style="fill:#10b981;fill-opacity:1;"><g transform="translate(449.823608, 179.608319)"><path style="stroke:none" d="M 10.34375 -13.46875 L 9.171875 -13.46875 C 9.117188 -14.007812 8.960938 -14.410156 8.703125 -14.671875 C 8.441406 -14.941406 8.070312 -15.078125 7.59375 -15.078125 C 7.03125 -15.078125 6.625 -14.875 6.375 -14.46875 C 6.125 -14.070312 6 -13.425781 6 -12.53125 L 6 -11.09375 L 8.78125 -11.09375 L 8.78125 -9.828125 L 6 -9.828125 L 6 -1.265625 L 8.140625 -1.265625 L 8.140625 0 L 0.734375 0 L 0.734375 -1.265625 L 2.3125 -1.265625 L 2.3125 -9.828125 L 0.65625 -9.828125 L 0.65625 -11.09375 L 2.3125 -11.09375 L 2.3125 -12.484375 C 2.3125 -13.710938 2.703125 -14.644531 3.484375 -15.28125 C 4.273438 -15.914062 5.429688 -16.234375 6.953125 -16.234375 C 7.546875 -16.234375 8.125 -16.203125 8.6875 -16.140625 C 9.25 -16.078125 9.800781 -15.976562 10.34375 -15.84375 Z M 10.34375 -13.46875 "/></g></g><g style="fill:#10b981;fill-opacity:1;"><g transform="translate(459.011989, 179.608319)"><path style="stroke:none" d="M 7.140625 -0.875 C 7.921875 -0.875 8.46875 -1.207031 8.78125 -1.875 C 9.09375 -2.539062 9.25 -3.765625 9.25 -5.546875 C 9.25 -7.328125 9.09375 -8.550781 8.78125 -9.21875 C 8.46875 -9.882812 7.921875 -10.21875 7.140625 -10.21875 C 6.347656 -10.21875 5.789062 -9.878906 5.46875 -9.203125 C 5.15625 -8.535156 5 -7.316406 5 -5.546875 C 5 -3.785156 5.15625 -2.566406 5.46875 -1.890625 C 5.789062 -1.210938 6.347656 -0.875 7.140625 -0.875 Z M 7.140625 0.296875 C 5.179688 0.296875 3.644531 -0.21875 2.53125 -1.25 C 1.425781 -2.289062 0.875 -3.722656 0.875 -5.546875 C 0.875 -7.378906 1.425781 -8.8125 2.53125 -9.84375 C 3.644531 -10.875 5.179688 -11.390625 7.140625 -11.390625 C 9.097656 -11.390625 10.628906 -10.875 11.734375 -9.84375 C 12.847656 -8.8125 13.40625 -7.378906 13.40625 -5.546875 C 13.40625 -3.722656 12.847656 -2.289062 11.734375 -1.25 C 10.628906 -0.21875 9.097656 0.296875 7.140625 0.296875 Z M 7.140625 0.296875 "/></g></g><g style="fill:#10b981;fill-opacity:1;"><g transform="translate(473.258672, 179.608319)"><path style="stroke:none" d="M 11.484375 -11.21875 L 11.484375 -7.90625 L 10.296875 -7.90625 C 10.253906 -8.5 10.09375 -8.941406 9.8125 -9.234375 C 9.539062 -9.523438 9.140625 -9.671875 8.609375 -9.671875 C 7.804688 -9.671875 7.171875 -9.3125 6.703125 -8.59375 C 6.234375 -7.882812 6 -6.898438 6 -5.640625 L 6 -1.265625 L 8.015625 -1.265625 L 8.015625 0 L 0.734375 0 L 0.734375 -1.265625 L 2.3125 -1.265625 L 2.3125 -9.828125 L 0.609375 -9.828125 L 0.609375 -11.09375 L 6 -11.09375 L 6 -9.125 C 6.363281 -9.894531 6.84375 -10.460938 7.4375 -10.828125 C 8.03125 -11.203125 8.757812 -11.390625 9.625 -11.390625 C 9.84375 -11.390625 10.101562 -11.375 10.40625 -11.34375 C 10.71875 -11.3125 11.078125 -11.269531 11.484375 -11.21875 Z M 11.484375 -11.21875 "/></g></g><g style="fill:#10b981;fill-opacity:1;"><g transform="translate(484.512091, 179.608319)"><path style="stroke:none" d="M 12.96875 -9.28125 C 13.488281 -10.019531 14.046875 -10.554688 14.640625 -10.890625 C 15.242188 -11.222656 15.941406 -11.390625 16.734375 -11.390625 C 18.015625 -11.390625 18.96875 -11.03125 19.59375 -10.3125 C 20.226562 -9.59375 20.546875 -8.507812 20.546875 -7.0625 L 20.546875 -1.265625 L 22.125 -1.265625 L 22.125 0 L 15.515625 0 L 15.515625 -1.265625 L 16.84375 -1.265625 L 16.84375 -6.5 C 16.84375 -7.882812 16.734375 -8.757812 16.515625 -9.125 C 16.304688 -9.488281 15.914062 -9.671875 15.34375 -9.671875 C 14.6875 -9.671875 14.175781 -9.414062 13.8125 -8.90625 C 13.457031 -8.40625 13.28125 -7.6875 13.28125 -6.75 L 13.28125 -1.265625 L 14.59375 -1.265625 L 14.59375 0 L 8.25 0 L 8.25 -1.265625 L 9.578125 -1.265625 L 9.578125 -6.5 C 9.578125 -7.882812 9.46875 -8.757812 9.25 -9.125 C 9.039062 -9.488281 8.648438 -9.671875 8.078125 -9.671875 C 7.421875 -9.671875 6.910156 -9.414062 6.546875 -8.90625 C 6.179688 -8.40625 6 -7.6875 6 -6.75 L 6 -1.265625 L 7.328125 -1.265625 L 7.328125 0 L 0.734375 0 L 0.734375 -1.265625 L 2.3125 -1.265625 L 2.3125 -9.828125 L 0.734375 -9.828125 L 0.734375 -11.09375 L 6 -11.09375 L 6 -9.53125 C 6.425781 -10.175781 6.914062 -10.644531 7.46875 -10.9375 C 8.03125 -11.238281 8.695312 -11.390625 9.46875 -11.390625 C 10.375 -11.390625 11.109375 -11.21875 11.671875 -10.875 C 12.234375 -10.53125 12.664062 -10 12.96875 -9.28125 Z M 12.96875 -9.28125 "/></g></g><g style="fill:#10b981;fill-opacity:1;"><g transform="translate(507.112796, 179.608319)"><path style="stroke:none" d="M 11.765625 -6.8125 L 11.765625 -1.265625 L 13.359375 -1.265625 L 13.359375 0 L 8.078125 0 L 8.078125 -1.40625 C 7.585938 -0.820312 7.039062 -0.390625 6.4375 -0.109375 C 5.84375 0.160156 5.164062 0.296875 4.40625 0.296875 C 3.269531 0.296875 2.394531 -0.00390625 1.78125 -0.609375 C 1.175781 -1.222656 0.875 -2.09375 0.875 -3.21875 C 0.875 -4.46875 1.3125 -5.398438 2.1875 -6.015625 C 3.0625 -6.640625 4.378906 -6.953125 6.140625 -6.953125 L 8.078125 -6.953125 L 8.078125 -7.609375 C 8.078125 -8.503906 7.863281 -9.164062 7.4375 -9.59375 C 7.019531 -10.019531 6.363281 -10.234375 5.46875 -10.234375 C 4.726562 -10.234375 4.15625 -10.082031 3.75 -9.78125 C 3.351562 -9.476562 3.070312 -8.984375 2.90625 -8.296875 L 1.734375 -8.296875 L 1.734375 -10.6875 C 2.390625 -10.925781 3.070312 -11.101562 3.78125 -11.21875 C 4.5 -11.332031 5.25 -11.390625 6.03125 -11.390625 C 8.007812 -11.390625 9.457031 -11.019531 10.375 -10.28125 C 11.300781 -9.550781 11.765625 -8.394531 11.765625 -6.8125 Z M 8.078125 -3.484375 L 8.078125 -5.703125 L 6.6875 -5.703125 C 6 -5.703125 5.46875 -5.515625 5.09375 -5.140625 C 4.726562 -4.765625 4.546875 -4.226562 4.546875 -3.53125 C 4.546875 -2.820312 4.679688 -2.296875 4.953125 -1.953125 C 5.222656 -1.609375 5.628906 -1.4375 6.171875 -1.4375 C 6.742188 -1.4375 7.203125 -1.625 7.546875 -2 C 7.898438 -2.375 8.078125 -2.867188 8.078125 -3.484375 Z M 8.078125 -3.484375 "/></g></g><g style="fill:#10b981;fill-opacity:1;"><g transform="translate(520.952728, 179.608319)"><path style="stroke:none" d="M 0.28125 2.0625 C 1.007812 1.46875 1.539062 0.8125 1.875 0.09375 C 2.21875 -0.625 2.390625 -1.46875 2.390625 -2.4375 L 2.390625 -3.328125 L 5.359375 -3.328125 L 5.359375 -3.25 C 5.359375 -1.707031 5.035156 -0.382812 4.390625 0.71875 C 3.753906 1.832031 2.769531 2.769531 1.4375 3.53125 Z M 0.28125 2.0625 "/></g></g><g style="fill:#10b981;fill-opacity:1;"><g transform="translate(528.388955, 179.608319)"><path style="stroke:none" d=""/></g></g><g style="fill:#10b981;fill-opacity:1;"><g transform="translate(535.825181, 179.608319)"><path style="stroke:none" d="M 2.078125 -1.265625 L 2.078125 -14.984375 L 0.484375 -14.984375 L 0.484375 -16.234375 L 5.765625 -16.234375 L 5.765625 -9.6875 C 6.078125 -10.257812 6.5 -10.6875 7.03125 -10.96875 C 7.5625 -11.25 8.21875 -11.390625 9 -11.390625 C 10.570312 -11.390625 11.8125 -10.867188 12.71875 -9.828125 C 13.632812 -8.796875 14.09375 -7.367188 14.09375 -5.546875 C 14.09375 -3.734375 13.632812 -2.304688 12.71875 -1.265625 C 11.8125 -0.222656 10.570312 0.296875 9 0.296875 C 8.21875 0.296875 7.5625 0.15625 7.03125 -0.125 C 6.5 -0.40625 6.078125 -0.832031 5.765625 -1.40625 L 5.765625 0 L 0.484375 0 L 0.484375 -1.265625 Z M 5.765625 -5 C 5.765625 -3.707031 5.929688 -2.769531 6.265625 -2.1875 C 6.597656 -1.613281 7.132812 -1.328125 7.875 -1.328125 C 8.625 -1.328125 9.15625 -1.628906 9.46875 -2.234375 C 9.78125 -2.847656 9.9375 -3.953125 9.9375 -5.546875 C 9.9375 -7.140625 9.78125 -8.238281 9.46875 -8.84375 C 9.15625 -9.457031 8.625 -9.765625 7.875 -9.765625 C 7.132812 -9.765625 6.597656 -9.472656 6.265625 -8.890625 C 5.929688 -8.316406 5.765625 -7.382812 5.765625 -6.09375 Z M 5.765625 -5 "/></g></g><g style="fill:#10b981;fill-opacity:1;"><g transform="translate(550.76021, 179.608319)"><path style="stroke:none" d="M 1.96875 -14.234375 C 1.96875 -14.796875 2.160156 -15.269531 2.546875 -15.65625 C 2.929688 -16.039062 3.40625 -16.234375 3.96875 -16.234375 C 4.519531 -16.234375 4.988281 -16.039062 5.375 -15.65625 C 5.757812 -15.269531 5.953125 -14.796875 5.953125 -14.234375 C 5.953125 -13.679688 5.757812 -13.210938 5.375 -12.828125 C 4.988281 -12.441406 4.519531 -12.25 3.96875 -12.25 C 3.40625 -12.25 2.929688 -12.441406 2.546875 -12.828125 C 2.160156 -13.210938 1.96875 -13.679688 1.96875 -14.234375 Z M 6 -1.265625 L 7.59375 -1.265625 L 7.59375 0 L 0.734375 0 L 0.734375 -1.265625 L 2.3125 -1.265625 L 2.3125 -9.828125 L 0.734375 -9.828125 L 0.734375 -11.09375 L 6 -11.09375 Z M 6 -1.265625 "/></g></g><g style="fill:#10b981;fill-opacity:1;"><g transform="translate(558.874353, 179.608319)"><path style="stroke:none" d="M 11.484375 -11.21875 L 11.484375 -7.90625 L 10.296875 -7.90625 C 10.253906 -8.5 10.09375 -8.941406 9.8125 -9.234375 C 9.539062 -9.523438 9.140625 -9.671875 8.609375 -9.671875 C 7.804688 -9.671875 7.171875 -9.3125 6.703125 -8.59375 C 6.234375 -7.882812 6 -6.898438 6 -5.640625 L 6 -1.265625 L 8.015625 -1.265625 L 8.015625 0 L 0.734375 0 L 0.734375 -1.265625 L 2.3125 -1.265625 L 2.3125 -9.828125 L 0.609375 -9.828125 L 0.609375 -11.09375 L 6 -11.09375 L 6 -9.125 C 6.363281 -9.894531 6.84375 -10.460938 7.4375 -10.828125 C 8.03125 -11.203125 8.757812 -11.390625 9.625 -11.390625 C 9.84375 -11.390625 10.101562 -11.375 10.40625 -11.34375 C 10.71875 -11.3125 11.078125 -11.269531 11.484375 -11.21875 Z M 11.484375 -11.21875 "/></g></g><g style="fill:#10b981;fill-opacity:1;"><g transform="translate(570.127772, 179.608319)"><path style="stroke:none" d=""/></g></g><g style="fill:#10b981;fill-opacity:1;"><g transform="translate(577.563998, 179.608319)"><path style="stroke:none" d="M 13.234375 -11.09375 L 13.234375 -1.265625 L 14.8125 -1.265625 L 14.8125 0 L 9.53125 0 L 9.53125 -1.5625 C 9.09375 -0.90625 8.585938 -0.429688 8.015625 -0.140625 C 7.441406 0.148438 6.722656 0.296875 5.859375 0.296875 C 4.609375 0.296875 3.664062 -0.0664062 3.03125 -0.796875 C 2.394531 -1.535156 2.078125 -2.617188 2.078125 -4.046875 L 2.078125 -9.828125 L 0.484375 -9.828125 L 0.484375 -11.09375 L 5.765625 -11.09375 L 5.765625 -4.609375 C 5.765625 -3.234375 5.878906 -2.359375 6.109375 -1.984375 C 6.335938 -1.617188 6.757812 -1.4375 7.375 -1.4375 C 8.125 -1.4375 8.671875 -1.707031 9.015625 -2.25 C 9.359375 -2.800781 9.53125 -3.675781 9.53125 -4.875 L 9.53125 -9.828125 L 8.1875 -9.828125 L 8.1875 -11.09375 Z M 13.234375 -11.09375 "/></g></g><g style="fill:#10b981;fill-opacity:1;"><g transform="translate(593.093509, 179.608319)"><path style="stroke:none" d="M 12.96875 -9.28125 C 13.488281 -10.019531 14.046875 -10.554688 14.640625 -10.890625 C 15.242188 -11.222656 15.941406 -11.390625 16.734375 -11.390625 C 18.015625 -11.390625 18.96875 -11.03125 19.59375 -10.3125 C 20.226562 -9.59375 20.546875 -8.507812 20.546875 -7.0625 L 20.546875 -1.265625 L 22.125 -1.265625 L 22.125 0 L 15.515625 0 L 15.515625 -1.265625 L 16.84375 -1.265625 L 16.84375 -6.5 C 16.84375 -7.882812 16.734375 -8.757812 16.515625 -9.125 C 16.304688 -9.488281 15.914062 -9.671875 15.34375 -9.671875 C 14.6875 -9.671875 14.175781 -9.414062 13.8125 -8.90625 C 13.457031 -8.40625 13.28125 -7.6875 13.28125 -6.75 L 13.28125 -1.265625 L 14.59375 -1.265625 L 14.59375 0 L 8.25 0 L 8.25 -1.265625 L 9.578125 -1.265625 L 9.578125 -6.5 C 9.578125 -7.882812 9.46875 -8.757812 9.25 -9.125 C 9.039062 -9.488281 8.648438 -9.671875 8.078125 -9.671875 C 7.421875 -9.671875 6.910156 -9.414062 6.546875 -8.90625 C 6.179688 -8.40625 6 -7.6875 6 -6.75 L 6 -1.265625 L 7.328125 -1.265625 L 7.328125 0 L 0.734375 0 L 0.734375 -1.265625 L 2.3125 -1.265625 L 2.3125 -9.828125 L 0.734375 -9.828125 L 0.734375 -11.09375 L 6 -11.09375 L 6 -9.53125 C 6.425781 -10.175781 6.914062 -10.644531 7.46875 -10.9375 C 8.03125 -11.238281 8.695312 -11.390625 9.46875 -11.390625 C 10.375 -11.390625 11.109375 -11.21875 11.671875 -10.875 C 12.234375 -10.53125 12.664062 -10 12.96875 -9.28125 Z M 12.96875 -9.28125 "/></g></g><g style="fill:#10b981;fill-opacity:1;"><g transform="translate(615.694213, 179.608319)"><path style="stroke:none" d="M 13.234375 -11.09375 L 13.234375 -1.265625 L 14.8125 -1.265625 L 14.8125 0 L 9.53125 0 L 9.53125 -1.5625 C 9.09375 -0.90625 8.585938 -0.429688 8.015625 -0.140625 C 7.441406 0.148438 6.722656 0.296875 5.859375 0.296875 C 4.609375 0.296875 3.664062 -0.0664062 3.03125 -0.796875 C 2.394531 -1.535156 2.078125 -2.617188 2.078125 -4.046875 L 2.078125 -9.828125 L 0.484375 -9.828125 L 0.484375 -11.09375 L 5.765625 -11.09375 L 5.765625 -4.609375 C 5.765625 -3.234375 5.878906 -2.359375 6.109375 -1.984375 C 6.335938 -1.617188 6.757812 -1.4375 7.375 -1.4375 C 8.125 -1.4375 8.671875 -1.707031 9.015625 -2.25 C 9.359375 -2.800781 9.53125 -3.675781 9.53125 -4.875 L 9.53125 -9.828125 L 8.1875 -9.828125 L 8.1875 -11.09375 Z M 13.234375 -11.09375 "/></g></g><g style="fill:#10b981;fill-opacity:1;"><g transform="translate(631.223723, 179.608319)"><path style="stroke:none" d="M 2.125 -9.828125 L 0.515625 -9.828125 L 0.515625 -11.09375 L 2.125 -11.09375 L 2.125 -14.53125 L 5.8125 -14.53125 L 5.8125 -11.09375 L 8.890625 -11.09375 L 8.890625 -9.828125 L 5.8125 -9.828125 L 5.8125 -3.03125 C 5.8125 -2.070312 5.882812 -1.472656 6.03125 -1.234375 C 6.1875 -0.992188 6.46875 -0.875 6.875 -0.875 C 7.320312 -0.875 7.648438 -1.023438 7.859375 -1.328125 C 8.078125 -1.628906 8.195312 -2.09375 8.21875 -2.71875 L 9.765625 -2.71875 C 9.703125 -1.601562 9.394531 -0.820312 8.84375 -0.375 C 8.300781 0.0703125 7.363281 0.296875 6.03125 0.296875 C 4.507812 0.296875 3.476562 0.0625 2.9375 -0.40625 C 2.394531 -0.882812 2.125 -1.757812 2.125 -3.03125 Z M 2.125 -9.828125 "/></g></g><g style="fill:#10b981;fill-opacity:1;"><g transform="translate(641.090021, 179.608319)"><path style="stroke:none" d="M 0.28125 2.0625 C 1.007812 1.46875 1.539062 0.8125 1.875 0.09375 C 2.21875 -0.625 2.390625 -1.46875 2.390625 -2.4375 L 2.390625 -3.328125 L 5.359375 -3.328125 L 5.359375 -3.25 C 5.359375 -1.707031 5.035156 -0.382812 4.390625 0.71875 C 3.753906 1.832031 2.769531 2.769531 1.4375 3.53125 Z M 0.28125 2.0625 "/></g></g><g style="fill:#10b981;fill-opacity:1;"><g transform="translate(648.526247, 179.608319)"><path style="stroke:none" d=""/></g></g><g style="fill:#10b981;fill-opacity:1;"><g transform="translate(655.962473, 179.608319)"><path style="stroke:none" d="M 2.078125 -1.265625 L 2.078125 -14.984375 L 0.484375 -14.984375 L 0.484375 -16.234375 L 5.765625 -16.234375 L 5.765625 -9.6875 C 6.078125 -10.257812 6.5 -10.6875 7.03125 -10.96875 C 7.5625 -11.25 8.21875 -11.390625 9 -11.390625 C 10.570312 -11.390625 11.8125 -10.867188 12.71875 -9.828125 C 13.632812 -8.796875 14.09375 -7.367188 14.09375 -5.546875 C 14.09375 -3.734375 13.632812 -2.304688 12.71875 -1.265625 C 11.8125 -0.222656 10.570312 0.296875 9 0.296875 C 8.21875 0.296875 7.5625 0.15625 7.03125 -0.125 C 6.5 -0.40625 6.078125 -0.832031 5.765625 -1.40625 L 5.765625 0 L 0.484375 0 L 0.484375 -1.265625 Z M 5.765625 -5 C 5.765625 -3.707031 5.929688 -2.769531 6.265625 -2.1875 C 6.597656 -1.613281 7.132812 -1.328125 7.875 -1.328125 C 8.625 -1.328125 9.15625 -1.628906 9.46875 -2.234375 C 9.78125 -2.847656 9.9375 -3.953125 9.9375 -5.546875 C 9.9375 -7.140625 9.78125 -8.238281 9.46875 -8.84375 C 9.15625 -9.457031 8.625 -9.765625 7.875 -9.765625 C 7.132812 -9.765625 6.597656 -9.472656 6.265625 -8.890625 C 5.929688 -8.316406 5.765625 -7.382812 5.765625 -6.09375 Z M 5.765625 -5 "/></g></g><g style="fill:#10b981;fill-opacity:1;"><g transform="translate(670.897502, 179.608319)"><path style="stroke:none" d="M 1.96875 -14.234375 C 1.96875 -14.796875 2.160156 -15.269531 2.546875 -15.65625 C 2.929688 -16.039062 3.40625 -16.234375 3.96875 -16.234375 C 4.519531 -16.234375 4.988281 -16.039062 5.375 -15.65625 C 5.757812 -15.269531 5.953125 -14.796875 5.953125 -14.234375 C 5.953125 -13.679688 5.757812 -13.210938 5.375 -12.828125 C 4.988281 -12.441406 4.519531 -12.25 3.96875 -12.25 C 3.40625 -12.25 2.929688 -12.441406 2.546875 -12.828125 C 2.160156 -13.210938 1.96875 -13.679688 1.96875 -14.234375 Z M 6 -1.265625 L 7.59375 -1.265625 L 7.59375 0 L 0.734375 0 L 0.734375 -1.265625 L 2.3125 -1.265625 L 2.3125 -9.828125 L 0.734375 -9.828125 L 0.734375 -11.09375 L 6 -11.09375 Z M 6 -1.265625 "/></g></g><g style="fill:#10b981;fill-opacity:1;"><g transform="translate(679.011645, 179.608319)"><path style="stroke:none" d="M 0.734375 0 L 0.734375 -1.265625 L 2.3125 -1.265625 L 2.3125 -9.828125 L 0.734375 -9.828125 L 0.734375 -11.09375 L 6 -11.09375 L 6 -9.53125 C 6.445312 -10.1875 6.953125 -10.660156 7.515625 -10.953125 C 8.085938 -11.242188 8.8125 -11.390625 9.6875 -11.390625 C 10.925781 -11.390625 11.863281 -11.019531 12.5 -10.28125 C 13.144531 -9.550781 13.46875 -8.476562 13.46875 -7.0625 L 13.46875 -1.265625 L 15.046875 -1.265625 L 15.046875 0 L 8.421875 0 L 8.421875 -1.265625 L 9.765625 -1.265625 L 9.765625 -7.15625 C 9.765625 -8.09375 9.644531 -8.742188 9.40625 -9.109375 C 9.164062 -9.484375 8.75 -9.671875 8.15625 -9.671875 C 7.414062 -9.671875 6.867188 -9.394531 6.515625 -8.84375 C 6.171875 -8.300781 6 -7.429688 6 -6.234375 L 6 -1.265625 L 7.359375 -1.265625 L 7.359375 0 Z M 0.734375 0 "/></g></g><g style="fill:#10b981;fill-opacity:1;"><g transform="translate(694.541155, 179.608319)"><path style="stroke:none" d=""/></g></g><g style="fill:#10b981;fill-opacity:1;"><g transform="translate(701.977381, 179.608319)"><path style="stroke:none" d="M 12.875 -9.828125 L 12.875 -0.140625 C 12.875 1.410156 12.316406 2.613281 11.203125 3.46875 C 10.097656 4.320312 8.53125 4.75 6.5 4.75 C 5.757812 4.75 5.007812 4.691406 4.25 4.578125 C 3.5 4.460938 2.722656 4.289062 1.921875 4.0625 L 1.921875 1.40625 L 3.09375 1.40625 C 3.195312 2.132812 3.488281 2.675781 3.96875 3.03125 C 4.457031 3.382812 5.148438 3.5625 6.046875 3.5625 C 7.191406 3.5625 8 3.289062 8.46875 2.75 C 8.9375 2.207031 9.171875 1.242188 9.171875 -0.140625 L 9.171875 -1.40625 C 8.859375 -0.832031 8.4375 -0.40625 7.90625 -0.125 C 7.375 0.15625 6.71875 0.296875 5.9375 0.296875 C 4.363281 0.296875 3.125 -0.222656 2.21875 -1.265625 C 1.320312 -2.304688 0.875 -3.734375 0.875 -5.546875 C 0.875 -7.367188 1.320312 -8.796875 2.21875 -9.828125 C 3.125 -10.867188 4.363281 -11.390625 5.9375 -11.390625 C 6.71875 -11.390625 7.375 -11.25 7.90625 -10.96875 C 8.4375 -10.6875 8.859375 -10.257812 9.171875 -9.6875 L 9.171875 -11.09375 L 14.4375 -11.09375 L 14.4375 -9.828125 Z M 9.171875 -6.09375 C 9.171875 -7.382812 9.003906 -8.316406 8.671875 -8.890625 C 8.335938 -9.472656 7.804688 -9.765625 7.078125 -9.765625 C 6.304688 -9.765625 5.765625 -9.457031 5.453125 -8.84375 C 5.148438 -8.238281 5 -7.140625 5 -5.546875 C 5 -3.953125 5.15625 -2.847656 5.46875 -2.234375 C 5.78125 -1.628906 6.316406 -1.328125 7.078125 -1.328125 C 7.804688 -1.328125 8.335938 -1.613281 8.671875 -2.1875 C 9.003906 -2.769531 9.171875 -3.707031 9.171875 -5 Z M 9.171875 -6.09375 "/></g></g><g style="fill:#10b981;fill-opacity:1;"><g transform="translate(716.91241, 179.608319)"><path style="stroke:none" d="M 13.234375 -11.09375 L 13.234375 -1.265625 L 14.8125 -1.265625 L 14.8125 0 L 9.53125 0 L 9.53125 -1.5625 C 9.09375 -0.90625 8.585938 -0.429688 8.015625 -0.140625 C 7.441406 0.148438 6.722656 0.296875 5.859375 0.296875 C 4.609375 0.296875 3.664062 -0.0664062 3.03125 -0.796875 C 2.394531 -1.535156 2.078125 -2.617188 2.078125 -4.046875 L 2.078125 -9.828125 L 0.484375 -9.828125 L 0.484375 -11.09375 L 5.765625 -11.09375 L 5.765625 -4.609375 C 5.765625 -3.234375 5.878906 -2.359375 6.109375 -1.984375 C 6.335938 -1.617188 6.757812 -1.4375 7.375 -1.4375 C 8.125 -1.4375 8.671875 -1.707031 9.015625 -2.25 C 9.359375 -2.800781 9.53125 -3.675781 9.53125 -4.875 L 9.53125 -9.828125 L 8.1875 -9.828125 L 8.1875 -11.09375 Z M 3.5 -15.328125 C 3.5 -15.742188 3.648438 -16.097656 3.953125 -16.390625 C 4.265625 -16.691406 4.628906 -16.84375 5.046875 -16.84375 C 5.460938 -16.84375 5.816406 -16.691406 6.109375 -16.390625 C 6.410156 -16.097656 6.5625 -15.742188 6.5625 -15.328125 C 6.5625 -14.910156 6.410156 -14.546875 6.109375 -14.234375 C 5.804688 -13.929688 5.453125 -13.78125 5.046875 -13.78125 C 4.628906 -13.78125 4.265625 -13.929688 3.953125 -14.234375 C 3.648438 -14.546875 3.5 -14.910156 3.5 -15.328125 Z M 8.171875 -15.328125 C 8.171875 -15.742188 8.320312 -16.097656 8.625 -16.390625 C 8.925781 -16.691406 9.285156 -16.84375 9.703125 -16.84375 C 10.117188 -16.84375 10.476562 -16.691406 10.78125 -16.390625 C 11.09375 -16.097656 11.25 -15.742188 11.25 -15.328125 C 11.25 -14.910156 11.09375 -14.546875 10.78125 -14.234375 C 10.476562 -13.929688 10.117188 -13.78125 9.703125 -13.78125 C 9.285156 -13.78125 8.925781 -13.929688 8.625 -14.234375 C 8.320312 -14.546875 8.171875 -14.910156 8.171875 -15.328125 Z M 8.171875 -15.328125 "/></g></g><g style="fill:#10b981;fill-opacity:1;"><g transform="translate(732.441921, 179.608319)"><path style="stroke:none" d="M 6 -1.265625 L 7.59375 -1.265625 L 7.59375 0 L 0.734375 0 L 0.734375 -1.265625 L 2.3125 -1.265625 L 2.3125 -14.984375 L 0.734375 -14.984375 L 0.734375 -16.234375 L 6 -16.234375 Z M 6 -1.265625 "/></g></g><g style="fill:#10b981;fill-opacity:1;"><g transform="translate(740.556064, 179.608319)"><path style="stroke:none" d="M 13.234375 -11.09375 L 13.234375 -1.265625 L 14.8125 -1.265625 L 14.8125 0 L 9.53125 0 L 9.53125 -1.5625 C 9.09375 -0.90625 8.585938 -0.429688 8.015625 -0.140625 C 7.441406 0.148438 6.722656 0.296875 5.859375 0.296875 C 4.609375 0.296875 3.664062 -0.0664062 3.03125 -0.796875 C 2.394531 -1.535156 2.078125 -2.617188 2.078125 -4.046875 L 2.078125 -9.828125 L 0.484375 -9.828125 L 0.484375 -11.09375 L 5.765625 -11.09375 L 5.765625 -4.609375 C 5.765625 -3.234375 5.878906 -2.359375 6.109375 -1.984375 C 6.335938 -1.617188 6.757812 -1.4375 7.375 -1.4375 C 8.125 -1.4375 8.671875 -1.707031 9.015625 -2.25 C 9.359375 -2.800781 9.53125 -3.675781 9.53125 -4.875 L 9.53125 -9.828125 L 8.1875 -9.828125 L 8.1875 -11.09375 Z M 3.5 -15.328125 C 3.5 -15.742188 3.648438 -16.097656 3.953125 -16.390625 C 4.265625 -16.691406 4.628906 -16.84375 5.046875 -16.84375 C 5.460938 -16.84375 5.816406 -16.691406 6.109375 -16.390625 C 6.410156 -16.097656 6.5625 -15.742188 6.5625 -15.328125 C 6.5625 -14.910156 6.410156 -14.546875 6.109375 -14.234375 C 5.804688 -13.929688 5.453125 -13.78125 5.046875 -13.78125 C 4.628906 -13.78125 4.265625 -13.929688 3.953125 -14.234375 C 3.648438 -14.546875 3.5 -14.910156 3.5 -15.328125 Z M 8.171875 -15.328125 C 8.171875 -15.742188 8.320312 -16.097656 8.625 -16.390625 C 8.925781 -16.691406 9.285156 -16.84375 9.703125 -16.84375 C 10.117188 -16.84375 10.476562 -16.691406 10.78125 -16.390625 C 11.09375 -16.097656 11.25 -15.742188 11.25 -15.328125 C 11.25 -14.910156 11.09375 -14.546875 10.78125 -14.234375 C 10.476562 -13.929688 10.117188 -13.78125 9.703125 -13.78125 C 9.285156 -13.78125 8.925781 -13.929688 8.625 -14.234375 C 8.320312 -14.546875 8.171875 -14.910156 8.171875 -15.328125 Z M 8.171875 -15.328125 "/></g></g><g style="fill:#10b981;fill-opacity:1;"><g transform="translate(756.085574, 179.608319)"><path style="stroke:none" d="M 12.96875 -9.28125 C 13.488281 -10.019531 14.046875 -10.554688 14.640625 -10.890625 C 15.242188 -11.222656 15.941406 -11.390625 16.734375 -11.390625 C 18.015625 -11.390625 18.96875 -11.03125 19.59375 -10.3125 C 20.226562 -9.59375 20.546875 -8.507812 20.546875 -7.0625 L 20.546875 -1.265625 L 22.125 -1.265625 L 22.125 0 L 15.515625 0 L 15.515625 -1.265625 L 16.84375 -1.265625 L 16.84375 -6.5 C 16.84375 -7.882812 16.734375 -8.757812 16.515625 -9.125 C 16.304688 -9.488281 15.914062 -9.671875 15.34375 -9.671875 C 14.6875 -9.671875 14.175781 -9.414062 13.8125 -8.90625 C 13.457031 -8.40625 13.28125 -7.6875 13.28125 -6.75 L 13.28125 -1.265625 L 14.59375 -1.265625 L 14.59375 0 L 8.25 0 L 8.25 -1.265625 L 9.578125 -1.265625 L 9.578125 -6.5 C 9.578125 -7.882812 9.46875 -8.757812 9.25 -9.125 C 9.039062 -9.488281 8.648438 -9.671875 8.078125 -9.671875 C 7.421875 -9.671875 6.910156 -9.414062 6.546875 -8.90625 C 6.179688 -8.40625 6 -7.6875 6 -6.75 L 6 -1.265625 L 7.328125 -1.265625 L 7.328125 0 L 0.734375 0 L 0.734375 -1.265625 L 2.3125 -1.265625 L 2.3125 -9.828125 L 0.734375 -9.828125 L 0.734375 -11.09375 L 6 -11.09375 L 6 -9.53125 C 6.425781 -10.175781 6.914062 -10.644531 7.46875 -10.9375 C 8.03125 -11.238281 8.695312 -11.390625 9.46875 -11.390625 C 10.375 -11.390625 11.109375 -11.21875 11.671875 -10.875 C 12.234375 -10.53125 12.664062 -10 12.96875 -9.28125 Z M 12.96875 -9.28125 "/></g></g><g style="fill:#10b981;fill-opacity:1;"><g transform="translate(778.686278, 179.608319)"><path style="stroke:none" d="M 1 -0.328125 L 1 -3.421875 L 2.1875 -3.421875 C 2.28125 -2.597656 2.585938 -1.96875 3.109375 -1.53125 C 3.628906 -1.09375 4.335938 -0.875 5.234375 -0.875 C 5.984375 -0.875 6.554688 -1.003906 6.953125 -1.265625 C 7.359375 -1.523438 7.5625 -1.898438 7.5625 -2.390625 C 7.5625 -2.835938 7.4375 -3.179688 7.1875 -3.421875 C 6.9375 -3.660156 6.441406 -3.875 5.703125 -4.0625 L 4.1875 -4.453125 C 3.039062 -4.734375 2.207031 -5.140625 1.6875 -5.671875 C 1.175781 -6.203125 0.921875 -6.921875 0.921875 -7.828125 C 0.921875 -9.035156 1.335938 -9.929688 2.171875 -10.515625 C 3.003906 -11.097656 4.289062 -11.390625 6.03125 -11.390625 C 6.6875 -11.390625 7.382812 -11.335938 8.125 -11.234375 C 8.863281 -11.128906 9.679688 -10.960938 10.578125 -10.734375 L 10.578125 -7.9375 L 9.40625 -7.9375 C 9.34375 -8.6875 9.070312 -9.253906 8.59375 -9.640625 C 8.113281 -10.023438 7.429688 -10.21875 6.546875 -10.21875 C 5.796875 -10.21875 5.226562 -10.097656 4.84375 -9.859375 C 4.457031 -9.617188 4.265625 -9.269531 4.265625 -8.8125 C 4.265625 -8.4375 4.375 -8.140625 4.59375 -7.921875 C 4.8125 -7.703125 5.210938 -7.519531 5.796875 -7.375 L 7.3125 -7 C 8.757812 -6.625 9.757812 -6.164062 10.3125 -5.625 C 10.875 -5.082031 11.15625 -4.328125 11.15625 -3.359375 C 11.15625 -2.109375 10.707031 -1.1875 9.8125 -0.59375 C 8.914062 0 7.523438 0.296875 5.640625 0.296875 C 4.953125 0.296875 4.222656 0.242188 3.453125 0.140625 C 2.679688 0.0351562 1.863281 -0.117188 1 -0.328125 Z M 1 -0.328125 "/></g></g><g style="fill:#10b981;fill-opacity:1;"><g transform="translate(790.71148, 179.608319)"><path style="stroke:none" d="M 8.5625 -6.265625 C 8.5625 -7.722656 8.425781 -8.742188 8.15625 -9.328125 C 7.882812 -9.921875 7.425781 -10.21875 6.78125 -10.21875 C 6.144531 -10.21875 5.6875 -9.925781 5.40625 -9.34375 C 5.132812 -8.769531 5 -7.804688 5 -6.453125 L 5 -6.265625 Z M 12.625 -5.015625 L 5 -5.015625 L 5 -4.9375 C 5 -3.5 5.210938 -2.460938 5.640625 -1.828125 C 6.078125 -1.191406 6.773438 -0.875 7.734375 -0.875 C 8.535156 -0.875 9.179688 -1.085938 9.671875 -1.515625 C 10.171875 -1.941406 10.488281 -2.554688 10.625 -3.359375 L 12.359375 -3.359375 C 12.054688 -2.097656 11.457031 -1.171875 10.5625 -0.578125 C 9.675781 0.00390625 8.4375 0.296875 6.84375 0.296875 C 4.914062 0.296875 3.4375 -0.207031 2.40625 -1.21875 C 1.382812 -2.226562 0.875 -3.671875 0.875 -5.546875 C 0.875 -7.390625 1.398438 -8.820312 2.453125 -9.84375 C 3.503906 -10.875 4.96875 -11.390625 6.84375 -11.390625 C 8.675781 -11.390625 10.082031 -10.847656 11.0625 -9.765625 C 12.039062 -8.691406 12.5625 -7.109375 12.625 -5.015625 Z M 12.625 -5.015625 "/></g></g><g style="fill:#10b981;fill-opacity:1;"><g transform="translate(804.301105, 179.608319)"><path style="stroke:none" d="M 12.96875 -9.28125 C 13.488281 -10.019531 14.046875 -10.554688 14.640625 -10.890625 C 15.242188 -11.222656 15.941406 -11.390625 16.734375 -11.390625 C 18.015625 -11.390625 18.96875 -11.03125 19.59375 -10.3125 C 20.226562 -9.59375 20.546875 -8.507812 20.546875 -7.0625 L 20.546875 -1.265625 L 22.125 -1.265625 L 22.125 0 L 15.515625 0 L 15.515625 -1.265625 L 16.84375 -1.265625 L 16.84375 -6.5 C 16.84375 -7.882812 16.734375 -8.757812 16.515625 -9.125 C 16.304688 -9.488281 15.914062 -9.671875 15.34375 -9.671875 C 14.6875 -9.671875 14.175781 -9.414062 13.8125 -8.90625 C 13.457031 -8.40625 13.28125 -7.6875 13.28125 -6.75 L 13.28125 -1.265625 L 14.59375 -1.265625 L 14.59375 0 L 8.25 0 L 8.25 -1.265625 L 9.578125 -1.265625 L 9.578125 -6.5 C 9.578125 -7.882812 9.46875 -8.757812 9.25 -9.125 C 9.039062 -9.488281 8.648438 -9.671875 8.078125 -9.671875 C 7.421875 -9.671875 6.910156 -9.414062 6.546875 -8.90625 C 6.179688 -8.40625 6 -7.6875 6 -6.75 L 6 -1.265625 L 7.328125 -1.265625 L 7.328125 0 L 0.734375 0 L 0.734375 -1.265625 L 2.3125 -1.265625 L 2.3125 -9.828125 L 0.734375 -9.828125 L 0.734375 -11.09375 L 6 -11.09375 L 6 -9.53125 C 6.425781 -10.175781 6.914062 -10.644531 7.46875 -10.9375 C 8.03125 -11.238281 8.695312 -11.390625 9.46875 -11.390625 C 10.375 -11.390625 11.109375 -11.21875 11.671875 -10.875 C 12.234375 -10.53125 12.664062 -10 12.96875 -9.28125 Z M 12.96875 -9.28125 "/></g></g><g style="fill:#10b981;fill-opacity:1;"><g transform="translate(826.90181, 179.608319)"><path style="stroke:none" d="M 8.5625 -6.265625 C 8.5625 -7.722656 8.425781 -8.742188 8.15625 -9.328125 C 7.882812 -9.921875 7.425781 -10.21875 6.78125 -10.21875 C 6.144531 -10.21875 5.6875 -9.925781 5.40625 -9.34375 C 5.132812 -8.769531 5 -7.804688 5 -6.453125 L 5 -6.265625 Z M 12.625 -5.015625 L 5 -5.015625 L 5 -4.9375 C 5 -3.5 5.210938 -2.460938 5.640625 -1.828125 C 6.078125 -1.191406 6.773438 -0.875 7.734375 -0.875 C 8.535156 -0.875 9.179688 -1.085938 9.671875 -1.515625 C 10.171875 -1.941406 10.488281 -2.554688 10.625 -3.359375 L 12.359375 -3.359375 C 12.054688 -2.097656 11.457031 -1.171875 10.5625 -0.578125 C 9.675781 0.00390625 8.4375 0.296875 6.84375 0.296875 C 4.914062 0.296875 3.4375 -0.207031 2.40625 -1.21875 C 1.382812 -2.226562 0.875 -3.671875 0.875 -5.546875 C 0.875 -7.390625 1.398438 -8.820312 2.453125 -9.84375 C 3.503906 -10.875 4.96875 -11.390625 6.84375 -11.390625 C 8.675781 -11.390625 10.082031 -10.847656 11.0625 -9.765625 C 12.039062 -8.691406 12.5625 -7.109375 12.625 -5.015625 Z M 12.625 -5.015625 "/></g></g><g style="fill:#10b981;fill-opacity:1;"><g transform="translate(840.491435, 179.608319)"><path style="stroke:none" d="M 5.875 -10.875 C 6.539062 -11.34375 7.023438 -11.898438 7.328125 -12.546875 C 7.628906 -13.203125 7.78125 -14.023438 7.78125 -15.015625 L 7.78125 -15.578125 L 10.609375 -15.578125 C 10.546875 -14.128906 10.222656 -12.914062 9.640625 -11.9375 C 9.054688 -10.96875 8.164062 -10.144531 6.96875 -9.46875 Z M 1.015625 -10.875 C 1.691406 -11.34375 2.179688 -11.898438 2.484375 -12.546875 C 2.785156 -13.203125 2.9375 -14.023438 2.9375 -15.015625 L 2.9375 -15.578125 L 5.75 -15.578125 C 5.695312 -14.128906 5.375 -12.914062 4.78125 -11.9375 C 4.195312 -10.96875 3.3125 -10.144531 2.125 -9.46875 Z M 1.015625 -10.875 "/></g></g></g></svg>